<?xml version="1.0" encoding="UTF-8" standalone="no"?>
<svg
   width="1266.1200469886633"
   id="screenshot"
   version="1.1"
   viewBox="-0.00002945408027699159 -0.0001327683537510893 1266.1200469886633 240.00014843559939"
   height="240.00014843559939"
   style="-webkit-print-color-adjust: exact;"
   xmlns:xlink="http://www.w3.org/1999/xlink"
   xmlns="http://www.w3.org/2000/svg"
   xmlns:svg="http://www.w3.org/2000/svg">
  <defs
     id="defs11">
    <linearGradient
       id="linearGradient25250">
      <stop
         style="stop-color:#ff0000;stop-opacity:1"
         offset="0"
         id="stop25246" />
      <stop
         style="stop-color:#00a100;stop-opacity:1"
         offset="0.50115877"
         id="stop25988" />
      <stop
         style="stop-color:#0000ff;stop-opacity:1"
         offset="1"
         id="stop25248" />
    </linearGradient>
    <linearGradient
       xlink:href="#linearGradient25250"
       id="linearGradient25252"
       x1="291.24408"
       y1="133.1575"
       x2="950.31964"
       y2="130.34189"
       gradientUnits="userSpaceOnUse" />
  </defs>
  <g
     id="shape-0d86b240-33f8-11ec-bc16-7b519797d558"
     width="1268"
     height="242"
     fill="none"
     transform="matrix(1.2511113,0,0,1.2511113,-155.96928,-31.314276)"
     style="fill-opacity:1;fill:url(#linearGradient25252)">
    <g
       aria-label="ROLT"
       id="text35581"
       style="font-size:266.667px;line-height:1.25;font-family:Inter;-inkscape-font-specification:Inter;fill:url(#linearGradient25252);stroke-width:48.2;fill-opacity:1.0">
      <path
         d="m 338.82421,135.11947 v 66.14592 l 26.43233,3.51563 v 6.90105 h -72.26571 v -6.90105 l 20.70315,-3.51563 V 47.358951 L 291.29812,43.97353 v -6.90105 h 75.39071 q 18.3594,0 30.599,3.255212 12.3698,3.255212 19.79169,9.375011 7.42188,5.989591 10.54689,14.583352 3.125,8.59376 3.125,19.401065 0,10.026054 -2.99479,17.96877 -2.86459,7.81251 -7.81251,13.8021 -4.94793,5.98959 -11.45835,10.02606 -6.51043,3.90625 -13.54168,5.98959 l 47.26568,69.79175 18.88023,3.51563 v 6.90105 h -41.79693 l -49.0886,-76.5626 z m 66.01571,-49.609431 q 0,-10.41668 -2.47396,-17.447938 -2.47396,-7.031259 -7.81251,-11.328139 -5.20834,-4.29688 -13.54168,-6.119799 -8.20314,-1.822919 -19.9219,-1.822919 h -22.26566 v 74.609466 h 23.04691 q 11.97918,0 20.18231,-2.08334 8.20314,-2.21354 13.28127,-6.77084 5.07813,-4.6875 7.29168,-11.84897 2.21354,-7.161467 2.21354,-17.187521 z"
         style="font-family:'Liberation Serif';-inkscape-font-specification:'Liberation Serif';fill:url(#linearGradient25252);fill-opacity:1.0"
         id="path22747" />
      <path
         d="m 499.63171,124.18196 q 0,18.22919 2.73438,32.94275 2.73438,14.71356 9.37501,25.13024 6.64063,10.41668 17.83856,16.14585 11.19793,5.59897 28.12504,5.59897 16.9271,0 28.12503,-5.59897 11.19793,-5.72917 17.83856,-16.14585 6.77085,-10.41668 9.50522,-25.13024 2.73438,-14.71356 2.73438,-32.94275 0,-18.09898 -2.73438,-32.682331 -2.73437,-14.583351 -9.50522,-24.739613 -6.64063,-10.286471 -17.83856,-15.755228 -11.19793,-5.468756 -28.12503,-5.468756 -16.92711,0 -28.12504,5.468756 -11.19793,5.468757 -17.83856,15.755228 -6.64063,10.156262 -9.37501,24.739613 -2.73438,14.583351 -2.73438,32.682331 z m -27.21358,0 q 0,-23.17711 5.59897,-39.974006 5.72917,-16.796896 16.53648,-27.734409 10.8073,-10.937513 26.69274,-16.145853 15.88544,-5.20834 36.45838,-5.20834 19.9219,0 35.67712,5.20834 15.88544,5.20834 26.95316,16.145853 11.06772,10.937513 16.92711,27.734409 5.85938,16.796896 5.85938,39.974006 0,23.17711 -5.85938,40.23443 -5.85939,16.9271 -16.92711,27.99482 -11.06772,11.06772 -26.95316,16.53648 -15.75522,5.33855 -35.67712,5.33855 -19.9219,0 -35.67713,-5.33855 -15.75523,-5.46876 -26.82295,-16.53648 -11.06772,-11.06772 -16.9271,-27.99482 -5.85939,-17.05732 -5.85939,-40.23443 z"
         style="font-family:'Liberation Serif';-inkscape-font-specification:'Liberation Serif';fill:url(#linearGradient25252);fill-opacity:1.0"
         id="path22749" />
      <path
         d="m 736.22055,43.97353 -26.95316,3.385421 V 200.48414 h 34.37504 q 16.27606,0 26.56254,-0.91146 10.28647,-0.91146 14.19272,-1.69271 l 8.07293,-36.32817 h 8.46355 l -2.34375,50.13027 H 661.74129 v -6.90105 l 22.39586,-3.51563 V 47.358951 L 661.74129,43.97353 v -6.90105 h 74.47926 z"
         style="font-family:'Liberation Serif';-inkscape-font-specification:'Liberation Serif';fill:url(#linearGradient25252);fill-opacity:1.0"
         id="path22751" />
      <path
         d="m 833.48629,211.68207 v -6.90105 l 27.73441,-3.51563 V 48.27041 h -6.64064 q -17.05731,0 -28.64587,0.781251 -11.58855,0.781251 -16.40627,1.822919 l -3.51563,27.213575 h -8.72396 V 37.07248 h 153.64602 v 41.015675 h -8.85418 L 938.56454,50.87458 q -2.34375,-0.520834 -7.03126,-0.91146 -4.5573,-0.390625 -10.6771,-0.651042 -6.11979,-0.390625 -13.41147,-0.520834 -7.16147,-0.260417 -14.71356,-0.260417 h -6.38022 V 201.26539 l 27.73441,3.51563 v 6.90105 z"
         style="font-family:'Liberation Serif';-inkscape-font-specification:'Liberation Serif';fill:url(#linearGradient25252);fill-opacity:1.0"
         id="path22753" />
    </g>
  </g>
</svg>
